<svg width="73" height="48" viewBox="0 0 73 48" fill="none" xmlns="http://www.w3.org/2000/svg">
<path d="M51.208 29.708C52.672 28.988 53.908 28.22 54.916 27.404C55.972 27.764 56.752 28.268 57.256 28.916C57.784 29.54 58.048 30.26 58.048 31.076C58.048 31.652 57.64 32.252 56.824 32.876C56.008 33.476 55.036 33.98 53.908 34.388C52.78 34.796 51.82 35 51.028 35C50.476 35 49.84 34.796 49.12 34.388C48.424 33.98 47.812 33.5 47.284 32.948C46.78 32.396 46.528 31.964 46.528 31.652C46.528 31.412 46.624 31.088 46.816 30.68C47.032 30.272 47.26 29.852 47.5 29.42C47.74 28.988 47.896 28.7 47.968 28.556L47.068 28.052C45.796 30.14 44.572 31.82 43.396 33.092C42.244 34.364 41.104 35 39.976 35C39.208 35 38.392 34.664 37.528 33.992C36.688 33.32 35.968 32.504 35.368 31.544C34.792 30.584 34.504 29.732 34.504 28.988C34.504 26.852 34.948 24.668 35.836 22.436C36.724 20.204 37.96 18.356 39.544 16.892C41.152 15.428 42.964 14.696 44.98 14.696C45.7 14.696 46.432 15.02 47.176 15.668C47.92 16.316 48.4 16.976 48.616 17.648C48.736 17.12 48.904 16.664 49.12 16.28C49.36 15.872 49.612 15.668 49.876 15.668C50.5 15.668 51.184 15.896 51.928 16.352C52.696 16.784 53.344 17.3 53.872 17.9C54.4 18.476 54.664 18.932 54.664 19.268C54.64 19.724 54.448 20.48 54.088 21.536C53.752 22.592 53.2 24.2 52.432 26.36C51.976 27.536 51.568 28.652 51.208 29.708ZM40.156 29.996C42.1 28.796 43.792 27.32 45.232 25.568C46.672 23.792 47.656 21.836 48.184 19.7C47.536 19.412 46.924 19.268 46.348 19.268C45.22 19.268 44.212 19.772 43.324 20.78C42.436 21.788 41.728 23.108 41.2 24.74C40.672 26.372 40.324 28.124 40.156 29.996Z" 
fill="#FFFFFF"/> 

<path d="M15.428 15.308C16.7 15.308 17.828 15.608 18.812 16.208C19.796 16.808 20.552 17.636 21.08 18.692C21.632 19.724 21.908 20.888 21.908 22.184C21.908 24.104 21.356 26.072 20.252 28.088C19.172 30.08 17.744 31.736 15.968 33.056C14.216 34.352 12.392 35 10.496 35C9.68003 35 8.86403 34.676 8.04803 34.028C7.76003 35.228 7.53203 36.452 7.36403 37.7C7.22003 38.972 7.13603 39.716 7.11203 39.932C6.92003 41.564 6.72803 42.74 6.53603 43.46C6.36803 44.18 6.09203 44.54 5.70803 44.54C5.08403 44.54 4.38803 44.336 3.62003 43.928C2.87603 43.52 2.24003 43.028 1.71203 42.452C1.16003 41.9 0.884033 41.42 0.884033 41.012C0.884033 40.556 1.08803 39.548 1.49603 37.988C1.90403 36.428 2.52803 34.172 3.36803 31.22C4.11203 28.58 4.68803 26.504 5.09603 24.992C5.50403 23.48 5.70803 22.52 5.70803 22.112C5.70803 21.92 5.60003 21.728 5.38403 21.536C5.19203 21.32 4.86803 21.02 4.41203 20.636C3.90803 20.228 3.53603 19.904 3.29603 19.664C3.05603 19.424 2.93603 19.172 2.93603 18.908C2.93603 18.404 3.16403 17.816 3.62003 17.144C4.10003 16.472 4.65203 15.896 5.27603 15.416C5.92403 14.936 6.47603 14.696 6.93203 14.696C7.62803 14.696 8.42003 15.08 9.30803 15.848C10.196 16.616 10.832 17.384 11.216 18.152L12.62 15.776C13.556 15.464 14.492 15.308 15.428 15.308ZM10.496 30.392C11.264 30.392 12.104 29.996 13.016 29.204C13.928 28.388 14.696 27.392 15.32 26.216C15.944 25.016 16.256 23.876 16.256 22.796C16.256 22.004 16.064 21.392 15.68 20.96C15.296 20.528 14.744 20.312 14.024 20.312C13.184 20.312 12.416 20.792 11.72 21.752C11.048 22.688 10.508 23.84 10.1 25.208C9.71603 26.576 9.52403 27.836 9.52403 28.988C9.52403 29.444 9.60803 29.792 9.77603 30.032C9.96803 30.272 10.208 30.392 10.496 30.392Z" 
fill="#FFFFFF"/>

<path d="M26.4812 35C26.0732 35 25.6412 34.784 25.1852 34.352C24.7532 33.896 24.3812 33.356 24.0692 32.732C23.7812 32.108 23.6372 31.556 23.6372 31.076C23.6372 30.668 23.9132 30.236 24.4652 29.78C25.0412 29.324 25.7252 28.94 26.5172 28.628C27.3092 28.316 28.0172 28.16 28.6412 28.16C29.0492 28.16 29.4572 28.376 29.8652 28.808C30.2732 29.216 30.5972 29.72 30.8372 30.32C31.1012 30.896 31.2332 31.388 31.2332 31.796C31.2332 32.228 30.9452 32.696 30.3692 33.2C29.8172 33.704 29.1572 34.136 28.3892 34.496C27.6452 34.832 27.0092 35 26.4812 35Z" 
fill="#FFFFFF"/>

<path d="M53.408 21C52.76 21 52.052 20.796 51.284 20.388C50.516 19.956 49.856 19.464 49.304 18.912C48.752 18.336 48.476 17.856 48.476 17.472C48.476 17.016 48.572 16.428 48.764 15.708C48.956 14.964 49.244 14.004 49.628 12.828C50.012 11.604 50.3 10.632 50.492 9.91198C50.684 9.16798 50.78 8.56798 50.78 8.11198C50.78 7.91998 50.672 7.71598 50.456 7.49998C50.24 7.28398 49.904 6.99598 49.448 6.63598C48.92 6.20398 48.536 5.86798 48.296 5.62798C48.056 5.38798 47.936 5.14798 47.936 4.90798C47.936 4.40398 48.176 3.81598 48.656 3.14398C49.136 2.47198 49.7 1.89598 50.348 1.41598C50.996 0.935984 51.548 0.695984 52.004 0.695984C52.508 0.695984 53.084 0.923984 53.732 1.37998C54.38 1.83598 54.944 2.36398 55.424 2.96398C55.904 3.53998 56.144 3.98398 56.144 4.29598C56.144 5.20798 55.964 6.40798 55.604 7.89598L56.036 8.11198C56.588 7.22398 57.188 6.16798 57.836 4.94398C58.508 3.69598 58.916 2.92798 59.06 2.63998L59.744 1.34398C61.4 1.29598 62.636 1.59598 63.452 2.24398C64.268 2.89198 64.676 3.75598 64.676 4.83598C64.676 5.89198 64.328 6.94798 63.632 8.00398C61.904 8.57998 60.428 9.15598 59.204 9.73198C58.004 10.284 56.792 10.944 55.568 11.712C55.496 14.376 55.28 16.596 54.92 18.372C54.584 20.124 54.08 21 53.408 21Z" 
fill="#FFFFFF"/>

<path d="M60.1 28.652C61.852 26.324 63.244 24.584 64.276 23.432C65.308 22.256 66.22 21.668 67.012 21.668C67.564 21.668 68.128 21.932 68.704 22.46C69.304 22.988 69.796 23.624 70.18 24.368C70.564 25.088 70.756 25.7 70.756 26.204C70.756 27.572 70.216 28.94 69.136 30.308C68.08 31.652 66.736 32.864 65.104 33.944C65.584 34.4 65.992 34.748 66.328 34.988C66.664 35.228 67.024 35.42 67.408 35.564C68.152 35.324 69.088 34.892 70.216 34.268C70.936 34.7 71.488 35.204 71.872 35.78C72.256 36.356 72.448 36.932 72.448 37.508C72.448 38.516 71.992 39.356 71.08 40.028C70.168 40.676 69.028 41 67.66 41C66.532 41 65.488 40.676 64.528 40.028C63.592 39.356 62.812 38.468 62.188 37.364C61.588 36.236 61.18 35.024 60.964 33.728L61.648 32.612C62.968 32.084 63.964 31.472 64.636 30.776C65.332 30.08 65.68 29.456 65.68 28.904C65.68 28.664 65.608 28.484 65.464 28.364C65.344 28.22 65.176 28.148 64.96 28.148C64.432 28.148 63.784 28.508 63.016 29.228C62.248 29.924 61.18 31.016 59.812 32.504C59.788 32.528 59.512 32.84 58.984 33.44C58.912 35.312 58.732 37.04 58.444 38.624C58.156 40.208 57.76 41 57.256 41C56.656 41 55.96 40.796 55.168 40.388C54.376 39.98 53.692 39.5 53.116 38.948C52.564 38.372 52.288 37.88 52.288 37.472C52.288 37.184 52.384 36.692 52.576 35.996C52.768 35.276 52.996 34.484 53.26 33.62C54.196 30.548 54.928 27.8 55.456 25.376C55.744 24.032 55.996 22.64 56.212 21.2C56.548 19.28 56.836 17.804 57.076 16.772C57.316 15.74 57.616 14.876 57.976 14.18C58.36 13.46 58.828 13.1 59.38 13.1C59.788 13.1 60.388 13.352 61.18 13.856C61.996 14.336 62.716 14.9 63.34 15.548C63.964 16.172 64.276 16.688 64.276 17.096C64.276 17.456 64.144 17.864 63.88 18.32C63.64 18.752 63.232 19.376 62.656 20.192C62.536 20.36 62.308 20.696 61.972 21.2C61.66 21.704 61.432 22.124 61.288 22.46C61 23.156 60.676 24.044 60.316 25.124C59.98 26.204 59.692 27.26 59.452 28.292L60.1 28.652Z" 
fill="#FFFFFF"/>

<path d="M16.0001 40C25.2122 46.4076 30.4694 46.3248 40.0001 40" 
stroke="#FFFFFF" stroke-width="5.75"/>
</svg>
